<svg width="112" height="33" viewBox="0 0 112 33" fill="none" xmlns="http://www.w3.org/2000/svg">
<path d="M4.31667 7.58057C4.86111 7.31657 5.17222 7.128 5.36667 6.10971L6.37778 2.56457C6.41667 2.41371 6.53333 2.30057 6.76667 2.30057C6.92222 2.30057 7.19444 2.45143 7.23333 2.56457L8.05 6.90171C8.20556 7.35428 8.51667 7.54286 8.86667 7.54286C9.21667 7.54286 9.52778 7.35428 9.68333 6.90171L10.4611 2.56457C10.5 2.41371 10.7722 2.30057 10.9278 2.30057C11.1611 2.30057 11.2778 2.41371 11.2778 2.56457L12.2889 6.10971C12.4833 7.128 12.7944 7.31657 13.3389 7.58057C14.0778 7.95771 16.2556 7.95771 17.5 7.95771C17.2278 3.50743 13.4167 0 8.75 0C4.08333 0 0.311111 3.50743 0 7.95771C1.36111 7.95771 3.61667 7.95771 4.31667 7.58057Z" fill="#48A739"/>
<path d="M13.3 9.39081C12.7556 9.65481 12.4444 9.84339 12.25 10.8617L11.3556 14.4068C11.3167 14.5577 11.1222 14.7085 10.8889 14.7085C10.6944 14.7085 10.4611 14.5577 10.4222 14.4068L9.64444 10.032C9.48889 9.54167 9.17778 9.3531 8.82778 9.3531C8.47778 9.3531 8.16667 9.54167 8.01111 10.032L7.19444 14.4068C7.15556 14.5577 6.88333 14.6708 6.72778 14.7085C6.49444 14.7085 6.3 14.5954 6.26111 14.4068L5.36667 10.8617C5.17222 9.84339 4.86111 9.65481 4.31667 9.39081C3.61667 9.01367 1.4 9.01367 0 9.01367C0.272222 13.464 4.08333 16.9714 8.75 16.9714C13.3778 16.9714 17.15 13.5017 17.4611 9.0891C16.2167 9.0891 14.0389 8.97596 13.3 9.39081Z" fill="#05A1C6"/>
<path d="M29.672 1.16919C32.8609 1.16919 34.3776 2.97948 34.3776 5.31776C34.3776 6.93948 33.6387 8.03319 32.472 8.48576C33.6776 8.97605 34.3776 10.1075 34.3776 11.6538C34.3776 13.992 32.8609 15.8023 29.672 15.8023H23.1387V1.16919H29.672ZM29.5553 4.75205H26.8331V6.7509H29.4776C30.2164 6.7509 30.6831 6.37376 30.6831 5.73262C30.6831 5.1669 30.3331 4.75205 29.5553 4.75205ZM29.4776 10.296H26.8331V12.2949H29.5553C30.372 12.2949 30.6831 11.88 30.6831 11.3143C30.6831 10.6355 30.2164 10.296 29.4776 10.296Z" fill="#3E3935"/>
<path d="M42.8551 1.16919C44.9162 1.16919 46.9385 1.77262 48.4162 3.13033L46.6274 6.37376C45.4996 5.20462 44.294 4.71433 42.8551 4.71433C40.5607 4.71433 38.9274 6.26062 38.9274 8.48576C38.9274 10.7109 40.5607 12.2572 42.8551 12.2572C44.2162 12.2572 45.6162 11.8046 46.8607 10.4092L48.7274 13.6903C47.1718 15.0858 45.1885 15.84 42.894 15.84C38.4996 15.84 35.2329 12.672 35.2329 8.48576C35.2718 4.29948 38.5385 1.16919 42.8551 1.16919Z" fill="#3E3935"/>
<path d="M65.8389 1.16919V15.84H62.1833V10.296H56.7389V15.84H53.0444V1.16919H56.7389V6.71319H62.1833V1.16919H65.8389Z" fill="#3E3935"/>
<path d="M69.1053 19.1589L71.322 14.2938L66.772 5.39319H70.8164L73.1498 10.3715L75.4053 5.39319H79.0609L72.722 19.1589H69.1053Z" fill="#3E3935"/>
<path d="M90.3776 1.16919V15.84H86.9165V14.4069C86.1387 15.4629 84.9332 16.104 83.4554 16.104C80.9665 16.104 78.7109 14.256 78.7109 10.5978C78.7109 6.93948 80.9276 5.09148 83.3776 5.09148C85.0498 5.09148 86.2554 5.88347 86.9165 6.86405V1.16919H90.3776ZM82.2498 10.5978C82.2498 11.9932 83.3387 12.7852 84.6221 12.7852C85.8665 12.7852 86.9943 11.9555 86.9943 10.5978C86.9943 9.20233 85.9054 8.41033 84.6221 8.41033C83.3387 8.41033 82.2498 9.24005 82.2498 10.5978Z" fill="#3E3935"/>
<path d="M98.661 5.12915C99.0888 5.12915 99.361 5.20458 99.711 5.28001V8.90058C99.3221 8.74972 98.7777 8.67429 98.311 8.67429C96.7554 8.67429 95.861 9.35315 95.861 11.2011V15.84H92.3999V5.35544H95.7443V7.16572C96.211 5.92115 97.1443 5.12915 98.661 5.12915Z" fill="#3E3935"/>
<path d="M106.089 5.12915C109.472 5.12915 112 7.27886 112 10.6354C112 13.992 109.472 16.1417 106.089 16.1417C102.706 16.1417 100.178 13.992 100.178 10.6354C100.178 7.24115 102.744 5.12915 106.089 5.12915ZM106.089 8.41029C104.844 8.41029 103.717 9.24001 103.717 10.5977C103.717 11.9931 104.806 12.7851 106.089 12.7851C107.333 12.7851 108.461 11.9554 108.461 10.5977C108.461 9.24001 107.333 8.41029 106.089 8.41029Z" fill="#3E3935"/>
<path d="M26.872 22.6285C28.8942 22.6285 30.4109 24.0617 30.4109 26.0605C30.4109 28.0594 28.9331 29.4925 26.872 29.4925H24.4998V32.8114H23.1387V22.6663H26.872V22.6285ZM26.872 23.9485H24.4998V28.1725H26.872C28.0776 28.1725 29.0498 27.3051 29.0498 26.0605C29.0498 24.816 28.0776 23.9485 26.872 23.9485Z" fill="#3E3935"/>
<path d="M35.233 25.3817C37.4885 25.3817 39.1607 27.0034 39.1607 29.1909C39.1607 31.3783 37.4885 33 35.233 33C32.9774 33 31.3052 31.3783 31.3052 29.1909C31.3441 27.0034 33.0163 25.3817 35.233 25.3817ZM35.233 26.5886C33.6774 26.5886 32.6663 27.6823 32.6663 29.1909C32.6663 30.6994 33.7163 31.7931 35.233 31.7931C36.7885 31.7931 37.7996 30.6994 37.7996 29.1909C37.8385 27.6446 36.7885 26.5886 35.233 26.5886Z" fill="#3E3935"/>
<path d="M42.7778 32.7737L39.7056 25.5326H41.1833L43.3222 30.9257L45.5778 25.5326H46.5111L48.7667 30.9257L50.9056 25.5326H52.3833L49.3111 32.7737H48.3389L46.0833 27.5692L43.8278 32.7737H42.7778Z" fill="#3E3935"/>
<path d="M56.622 25.3817C58.9553 25.3817 60.1998 27.0411 60.1998 29.1909V29.568H54.2109C54.2887 31.0389 55.3776 31.8309 56.6609 31.8309C57.7498 31.8309 58.5276 31.3029 59.0331 30.6994L59.6942 31.68C59.1109 32.3211 58.0998 33 56.6998 33C54.4442 33 52.8887 31.5669 52.8887 29.2663C52.9276 27.0789 54.3665 25.3817 56.622 25.3817ZM56.622 26.5131C55.222 26.5131 54.4442 27.3429 54.2887 28.512H58.7998C58.6831 27.3429 57.9831 26.5131 56.622 26.5131Z" fill="#3E3935"/>
<path d="M65.4108 25.3817C65.683 25.3817 65.9164 25.4194 66.1497 25.4571V26.7771C65.8775 26.7017 65.683 26.7017 65.4108 26.7017C63.7386 26.7017 63.233 27.7954 63.233 29.4549V32.8491H61.9497V25.5326H63.1942V26.6263C63.6219 25.8343 64.3997 25.3817 65.4108 25.3817Z" fill="#3E3935"/>
<path d="M74.5496 25.3817C76.0273 25.3817 76.9607 25.9851 77.5051 26.928L76.4551 27.5691C76.144 26.9657 75.5607 26.5131 74.5107 26.5131C73.6551 26.5131 73.0329 26.8526 73.0329 27.4183C73.0329 28.0971 73.8107 28.2857 74.8218 28.512C76.0662 28.776 77.5051 29.04 77.5051 30.6994C77.5051 32.2457 76.2607 32.9623 74.6273 32.9623C73.2273 32.9623 71.9051 32.472 71.3218 31.2651L72.3718 30.624C72.8384 31.5291 73.7329 31.7931 74.6273 31.7931C75.5996 31.7931 76.1829 31.4914 76.1829 30.8126C76.1829 30.096 75.5218 29.9451 74.5107 29.7189C73.3051 29.4549 71.7107 29.1154 71.7107 27.5314C71.7496 26.2491 72.7996 25.3817 74.5496 25.3817Z" fill="#3E3935"/>
<path d="M88.1997 25.3817C90.2997 25.3817 91.1163 26.664 91.1163 28.6251V32.8114H89.833V28.4743C89.833 27.2297 89.2497 26.5509 88.083 26.5509C86.3719 26.5509 85.8663 27.7954 85.8663 29.4171V32.8114H84.583V28.4743C84.583 27.2297 83.9997 26.5509 82.833 26.5509C81.1219 26.5509 80.6552 27.8331 80.6552 29.4171V32.8114H79.333V25.5326H80.5775V26.5509C81.0441 25.7966 81.8608 25.344 82.9497 25.344C84.233 25.344 85.0108 25.9097 85.3997 26.7771C85.983 25.9474 86.7997 25.3817 88.1997 25.3817Z" fill="#3E3935"/>
<path d="M95.9776 25.3817C98.0387 25.3817 98.9721 26.3623 98.9721 28.0971V32.8114H97.6887V31.7931C97.1832 32.5474 96.3276 32.9623 95.2387 32.9623C93.6443 32.9623 92.7109 31.9817 92.7109 30.6994C92.7109 29.3417 93.7609 28.5874 95.1221 28.4743L97.2221 28.2857C97.5721 28.248 97.6887 28.1349 97.6887 27.9086V27.72C97.6887 27.0034 97.1443 26.5509 96.0165 26.5509C94.9665 26.5509 94.2665 26.9657 94.072 27.8709L92.9443 27.2674C93.2554 26.136 94.1498 25.3817 95.9776 25.3817ZM97.6887 29.3417L95.2387 29.6434C94.3832 29.7566 94.0332 30.2091 94.0332 30.7371C94.0332 31.3783 94.4998 31.7931 95.4332 31.7931C96.8332 31.7931 97.6887 30.8126 97.6887 29.9074V29.3417Z" fill="#3E3935"/>
<path d="M104.611 25.3817C104.883 25.3817 105.116 25.4194 105.35 25.4571V26.7771C105.078 26.7017 104.883 26.7017 104.611 26.7017C102.939 26.7017 102.433 27.7954 102.433 29.4549V32.8491H101.111V25.5326H102.355V26.6263C102.822 25.8343 103.561 25.3817 104.611 25.3817Z" fill="#3E3935"/>
<path d="M110.016 32.8491C108.655 32.8491 107.955 32.2834 107.955 30.7371V26.6263H106.478V25.5326H107.955V23.6091H109.239V25.5326H111.3V26.6263H109.239V30.8126C109.239 31.3783 109.472 31.68 110.094 31.68C110.561 31.68 110.911 31.6423 111.3 31.5668V32.6606C110.911 32.7737 110.483 32.8491 110.016 32.8491Z" fill="#3E3935"/>
</svg>
