<?xml version="1.0" encoding="UTF-8"?>
<svg id="Layer_4" xmlns="http://www.w3.org/2000/svg" version="1.1" viewBox="0 0 977.1 648">
  <!-- Generator: Adobe Illustrator 30.1.0, SVG Export Plug-In . SVG Version: 2.1.1 Build 136)  -->
  <defs>
    <style>
      .st0 {
        fill: #0f74b9;
      }

      .st1 {
        fill: #030202;
      }
    </style>
  </defs>
  <g>
    <path class="st1" d="M804.8,348.2c.5,0,.9-.1,1.3-.4.3-.3.5-.8.5-1.3,0-.5-.1-.9-.5-1.3-.4-.3-.8-.4-1.3-.4h-2.8v3.3h2.8ZM805.7,342.9c.9,0,1.8.3,2.4.9.7.6,1,1.4,1,2.3.1,1.3-.6,2.5-1.9,2.9h0c.4,0,.7.3,1,.6.2.3.4.6.5,1,.1.6.2,1.2.2,1.8,0,.7.1,1.5.5,2.2h-2.6c-.2-.7-.3-1.3-.3-2,0-.7-.2-1.4-.6-2.1-.4-.4-.9-.5-1.4-.5h-2.6v4.7h-2.6v-11.7h6.3Z"/>
    <path class="st1" d="M804,337.9c-6.2,0-11.2,5-11.2,11.2,0,6.2,5,11.2,11.2,11.2,6.2,0,11.2-5,11.2-11.2h0c0-6.2-5-11.2-11.2-11.2M804,340c5,0,9.1,4,9.1,9,0,5-4,9.1-9,9.1-5,0-9.1-4-9.1-9,0,0,0,0,0,0,0-5,4.1-9.1,9.1-9.1"/>
    <path class="st1" d="M262.6,294.3c-1.4-10.4-9.5-15.8-20.8-15.8-17.3,0-23.9,15.3-23.9,30.6s6.6,30.6,23.9,30.6,19.8-7.2,20.8-19.1h26.8c-1.4,26.5-20.9,42.1-47,42.1s-51.4-23.8-51.4-53.7,20.2-53.7,51.4-53.7,46.3,14.1,47,38.9h-26.8Z"/>
    <path class="st1" d="M337.1,322.1h23.4l-11.4-36.1h-.3l-11.7,36.1ZM335.4,257.5h27.3l38.5,103h-28l-6.3-18.5h-35.9l-6.5,18.5h-27.5l38.5-103Z"/>
    <polygon class="st1" points="412.5 257.5 439.3 257.5 439.3 337.4 487.4 337.4 487.4 360.5 412.5 360.5 412.5 257.5"/>
    <rect class="st1" x="504.2" y="257.5" width="26.8" height="103"/>
    <path class="st1" d="M583,322.1h23.4l-11.4-36.1h-.3l-11.7,36.1ZM581.2,257.5h27.3l38.5,103h-28l-6.3-18.5h-35.9l-6.5,18.5h-27.6l38.5-103Z"/>
    <polygon class="st1" points="658.1 257.5 685.7 257.5 721.5 321 721.7 321 721.7 257.5 747 257.5 747 360.5 719.4 360.5 683.7 296.3 683.4 296.3 683.4 360.5 658.1 360.5 658.1 257.5"/>
  </g>
  <path class="st0" d="M513.2,177.6c-122.5,0-238.3,10.2-341,28.3l-35.3,14.9c85.8-11.8,179-18.2,276.6-18.2s60.9.6,90.7,1.9c3.7-4.3,13.4-15.9,13.4-15.9l13.4,17.2c71.8,3.9,140.3,11.4,204,21.8l93.8-25.9c-96.3-15.4-203.1-24-315.7-24Z"/>
  <g>
    <path d="M169.2,446.4c-.4,4.2-1.9,7.6-4.7,10-2.7,2.4-6.4,3.6-11,3.6s-6-.8-8.4-2.3-4.3-3.6-5.7-6.5c-1.3-2.7-2-6-2-9.7v-3.7c0-3.8.7-7.1,2-10,1.3-2.8,3.3-5.1,5.7-6.6s5.4-2.3,8.7-2.3,8,1.2,10.6,3.6c2.7,2.4,4.2,5.7,4.7,10.2h-6.9c-.4-2.8-1.1-5-2.5-6.2s-3.4-1.9-5.9-1.9-5.3,1.1-7,3.3c-1.6,2.2-2.5,5.5-2.5,9.7v3.5c0,4.3.8,7.6,2.3,9.9s3.8,3.4,6.8,3.4,4.8-.6,6.2-1.9,2.2-3.3,2.7-6.1h6.8Z"/>
    <path d="M177.8,444.3c0-2.9.6-5.6,1.8-7.9,1.1-2.3,2.7-4.2,4.9-5.4,2.1-1.2,4.5-1.9,7.2-1.9,4,0,7.3,1.3,9.7,3.9s3.9,6,4.1,10.3v1.6c0,2.9-.5,5.6-1.7,7.9-1.1,2.3-2.7,4.1-4.9,5.4s-4.5,1.9-7.3,1.9c-4.2,0-7.5-1.4-10.1-4.2-2.5-2.8-3.8-6.5-3.8-11.1v-.4h0ZM184.4,444.8c0,3.1.6,5.5,1.9,7.2,1.2,1.8,3,2.6,5.3,2.6s4-.9,5.2-2.7c1.2-1.8,1.9-4.3,1.9-7.7s-.6-5.4-1.9-7.2c-1.3-1.8-3-2.7-5.2-2.7s-3.9.9-5.2,2.6c-1.1,1.9-1.9,4.5-1.9,7.9Z"/>
    <path d="M221.5,429.7l.2,3.4c2.2-2.7,5-4,8.7-4,6.2,0,9.4,3.5,9.5,10.6v19.6h-6.6v-19.3c0-1.9-.4-3.3-1.2-4.2s-2.1-1.3-4-1.3c-2.7,0-4.7,1.2-6,3.6v21.1h-6.6v-29.7h6.2Z"/>
    <path d="M253.1,459.4v-24.8h-4.5v-5h4.5v-2.7c0-3.3.9-5.8,2.7-7.6s4.4-2.7,7.7-2.7,2.4.2,3.7.5l-.2,5.2c-.7-.2-1.6-.2-2.6-.2-3.2,0-4.8,1.7-4.8,5v2.7h6v5h-6v24.8h-6.6v-.2Z"/>
    <path d="M275,422c0-1.1.4-1.9,1-2.6.6-.7,1.6-1,2.8-1s2.1.4,2.8,1c.6.7,1,1.5,1,2.6s-.4,1.9-1,2.5c-.6.7-1.6,1-2.8,1s-2.1-.4-2.8-1c-.7-.6-1-1.5-1-2.5ZM282,459.4h-6.6v-29.7h6.6v29.7Z"/>
    <path d="M311.2,459.4c-.3-.5-.5-1.5-.8-2.7-2.1,2.2-4.7,3.4-7.8,3.4s-5.4-.9-7.3-2.6c-1.9-1.7-2.8-3.8-2.8-6.3s1.1-5.6,3.5-7.3c2.4-1.7,5.7-2.6,10.1-2.6h4.1v-1.9c0-1.5-.4-2.7-1.3-3.7-.9-.9-2.2-1.4-3.9-1.4s-2.7.4-3.7,1.1-1.4,1.8-1.4,2.9h-6.6c0-1.6.5-3.2,1.6-4.6,1.1-1.4,2.6-2.6,4.4-3.4s3.9-1.2,6.2-1.2c3.4,0,6.3.9,8.3,2.7,2,1.8,3.1,4.2,3.2,7.3v13.4c0,2.7.4,4.8,1.1,6.4v.4h-6.8ZM303.9,454.6c1.3,0,2.6-.4,3.7-1,1.1-.6,2-1.5,2.7-2.6v-5.6h-3.6c-2.5,0-4.3.4-5.6,1.3-1.2.9-1.9,2-1.9,3.6s.4,2.3,1.2,3.1c.9.6,2,1.1,3.4,1.1Z"/>
    <path d="M334.3,429.7l.2,3.4c2.2-2.7,5-4,8.7-4,6.2,0,9.4,3.5,9.5,10.6v19.6h-6.6v-19.3c0-1.9-.4-3.3-1.2-4.2s-2.1-1.3-4-1.3c-2.7,0-4.7,1.2-6,3.6v21.1h-6.6v-29.7h6.2Z"/>
    <path d="M375.9,454.6c1.7,0,3-.4,4.2-1.4,1.1-1,1.7-2.2,1.8-3.6h6.3c0,1.9-.6,3.5-1.8,5.2-1.1,1.6-2.6,2.8-4.4,3.8s-3.8,1.4-6,1.4c-4.2,0-7.4-1.3-9.9-4.1-2.5-2.7-3.6-6.4-3.6-11.1v-.7c0-4.5,1.2-8.1,3.6-10.9,2.4-2.7,5.7-4.1,9.9-4.1s6.5,1.1,8.7,3.1c2.2,2,3.4,4.8,3.5,8.1h-6.3c0-1.7-.6-3.1-1.8-4.2-1.1-1.1-2.5-1.7-4.2-1.7s-3.8.8-5,2.4c-1.1,1.6-1.8,4-1.8,7.2v1.1c0,3.2.6,5.7,1.8,7.3,1.1,1.5,2.8,2.3,5,2.3Z"/>
    <path d="M410.4,459.9c-4.2,0-7.7-1.3-10.3-4-2.7-2.7-4-6.2-4-10.6v-.9c0-3,.5-5.7,1.7-8s2.7-4.2,4.9-5.5c2-1.3,4.3-1.9,6.9-1.9,4.1,0,7.2,1.3,9.4,3.9,2.2,2.6,3.3,6.2,3.3,11v2.7h-19.5c.2,2.5,1.1,4.4,2.5,5.8,1.4,1.4,3.3,2.1,5.4,2.1,3.1,0,5.6-1.2,7.4-3.7l3.6,3.4c-1.1,1.8-2.7,3.2-4.8,4.2-1.8,1.1-4.1,1.5-6.5,1.5ZM409.6,434.5c-1.9,0-3.3.6-4.4,1.9s-1.9,3.1-2.1,5.4h12.7v-.5c-.2-2.2-.7-3.9-1.8-5s-2.6-1.8-4.4-1.8Z"/>
    <path d="M436,452.4c1.2,0,2.2.4,2.9,1.1.7.7,1,1.6,1,2.7s-.4,1.9-1,2.6c-.7.7-1.7,1.1-2.9,1.1s-2.1-.4-2.8-1c-.7-.7-1.1-1.5-1.1-2.7s.4-1.9,1-2.7c.7-.8,1.7-1.1,2.9-1.1Z"/>
    <path d="M491.5,449.1c0-1.8-.6-3.1-1.9-4.1s-3.4-1.9-6.7-2.9c-3.2-1-5.7-2-7.7-3.3-3.6-2.3-5.5-5.3-5.5-8.9s1.3-5.8,4-8,6-3.1,10.3-3.1,5.3.5,7.4,1.5c2.2,1.1,3.9,2.5,5.1,4.4,1.2,1.9,1.9,4,1.9,6.3h-6.9c0-2.1-.6-3.7-1.9-4.9s-3.2-1.8-5.7-1.8-4.1.4-5.3,1.4-1.9,2.3-1.9,4.1.7,2.7,2,3.6c1.3,1,3.6,1.9,6.7,2.8s5.6,1.9,7.5,3.2c1.9,1.1,3.3,2.6,4.2,4.1s1.3,3.4,1.3,5.4c0,3.4-1.2,6-3.8,8-2.6,1.9-6,2.9-10.4,2.9s-5.6-.5-8-1.6c-2.4-1.1-4.3-2.6-5.7-4.4-1.3-1.9-2-4.1-2-6.6h7c0,2.3.7,4.1,2.2,5.3s3.6,1.9,6.5,1.9,4.2-.5,5.5-1.5c1.1-1,1.8-2.2,1.8-3.8Z"/>
    <path d="M525.8,459.4c-.3-.5-.5-1.5-.8-2.7-2.1,2.2-4.7,3.4-7.8,3.4s-5.4-.9-7.3-2.6c-1.9-1.7-2.8-3.8-2.8-6.3s1.1-5.6,3.5-7.3c2.4-1.7,5.7-2.6,10.1-2.6h4.1v-1.9c0-1.5-.4-2.7-1.3-3.7-.9-.9-2.2-1.4-3.9-1.4s-2.7.4-3.7,1.1-1.4,1.8-1.4,2.9h-6.6c0-1.6.5-3.2,1.6-4.6,1.1-1.4,2.6-2.6,4.4-3.4s3.9-1.2,6.2-1.2c3.4,0,6.3.9,8.3,2.7,2,1.8,3.1,4.2,3.2,7.3v13.4c0,2.7.4,4.8,1.1,6.4v.4h-6.8ZM518.5,454.6c1.3,0,2.6-.4,3.7-1s2-1.5,2.7-2.6v-5.6h-3.6c-2.5,0-4.3.4-5.6,1.3-1.2.9-1.9,2-1.9,3.6s.4,2.3,1.2,3.1c.9.6,2,1.1,3.4,1.1Z"/>
    <path d="M552.8,450.9l6.3-21.2h6.9l-10.3,29.7h-5.8l-10.3-29.7h6.9l6.4,21.2Z"/>
    <path d="M572.7,444.3c0-2.9.6-5.6,1.8-7.9s2.7-4.2,4.9-5.4c2.1-1.2,4.5-1.9,7.2-1.9,4,0,7.3,1.3,9.7,3.9,2.5,2.6,3.9,6,4.1,10.3v1.6c0,2.9-.5,5.6-1.7,7.9-1.1,2.3-2.7,4.1-4.9,5.4s-4.5,1.9-7.3,1.9c-4.2,0-7.5-1.4-10.1-4.2-2.5-2.8-3.8-6.5-3.8-11.1v-.4h0ZM579.4,444.8c0,3.1.6,5.5,1.9,7.2,1.2,1.8,3,2.6,5.3,2.6s4-.9,5.2-2.7c1.2-1.8,1.9-4.3,1.9-7.7s-.6-5.4-1.9-7.2c-1.3-1.8-3-2.7-5.2-2.7s-3.9.9-5.2,2.6c-1.2,1.9-1.9,4.5-1.9,7.9Z"/>
    <path d="M610.2,422c0-1.1.4-1.9,1-2.6.6-.7,1.6-1,2.8-1s2.1.4,2.8,1c.6.7,1,1.5,1,2.6s-.4,1.9-1,2.5c-.6.7-1.6,1-2.8,1s-2.1-.4-2.8-1c-.6-.6-1-1.5-1-2.5ZM617.3,459.4h-6.6v-29.7h6.6v29.7Z"/>
    <path d="M644.3,435.8c-.9-.2-1.8-.2-2.7-.2-3.1,0-5.1,1.1-6.2,3.5v20.3h-6.6v-29.7h6.4l.2,3.4c1.6-2.6,3.8-3.9,6.7-3.9s1.8,0,2.4.4v6.2Z"/>
    <path d="M665.8,445.1h-14.4v-5.4h14.4v5.4Z"/>
    <path d="M699.2,442.4h-16.1v17h-7v-40h25.4v5.6h-18.5v11.9h16.1v5.6h0Z"/>
    <path d="M727.4,459.4c-.3-.5-.5-1.5-.8-2.7-2.1,2.2-4.7,3.4-7.8,3.4s-5.4-.9-7.3-2.6c-1.9-1.7-2.8-3.8-2.8-6.3s1.1-5.6,3.5-7.3c2.4-1.7,5.7-2.6,10.1-2.6h4.1v-1.9c0-1.5-.4-2.7-1.3-3.7-.9-.9-2.2-1.4-3.9-1.4s-2.7.4-3.7,1.1c-1,.8-1.4,1.8-1.4,2.9h-6.6c0-1.6.5-3.2,1.6-4.6s2.6-2.6,4.4-3.4c1.9-.8,3.9-1.2,6.2-1.2,3.4,0,6.3.9,8.3,2.7,2,1.8,3.1,4.2,3.2,7.3v13.4c0,2.7.4,4.8,1.1,6.4v.4h-6.8ZM720.1,454.6c1.3,0,2.6-.4,3.7-1s2-1.5,2.7-2.6v-5.6h-3.6c-2.5,0-4.3.4-5.6,1.3-1.2.9-1.9,2-1.9,3.6s.4,2.3,1.2,3.1c.9.6,2,1.1,3.4,1.1Z"/>
    <path d="M744.3,422c0-1.1.4-1.9,1-2.6.6-.7,1.6-1,2.8-1s2.1.4,2.8,1c.6.7,1,1.5,1,2.6s-.4,1.9-1,2.5c-.6.7-1.6,1-2.8,1s-2.1-.4-2.8-1c-.6-.6-1-1.5-1-2.5ZM751.5,459.4h-6.6v-29.7h6.6v29.7Z"/>
    <path d="M778.4,435.8c-.9-.2-1.8-.2-2.7-.2-3.1,0-5.1,1.1-6.2,3.5v20.3h-6.6v-29.7h6.4l.2,3.4c1.6-2.6,3.8-3.9,6.7-3.9s1.8,0,2.4.4v6.2Z"/>
    <path d="M799.5,459.9c-4.2,0-7.7-1.3-10.3-4-2.7-2.7-4-6.2-4-10.6v-.9c0-3,.5-5.7,1.7-8,1.1-2.3,2.7-4.2,4.9-5.5,2-1.3,4.3-1.9,6.9-1.9,4.1,0,7.2,1.3,9.4,3.9,2.2,2.6,3.3,6.2,3.3,11v2.7h-19.5c.2,2.5,1.1,4.4,2.5,5.8,1.4,1.4,3.3,2.1,5.4,2.1,3.1,0,5.6-1.2,7.4-3.7l3.6,3.4c-1.1,1.8-2.7,3.2-4.8,4.2-1.9,1.1-4.1,1.5-6.5,1.5ZM798.7,434.5c-1.9,0-3.3.6-4.4,1.9s-1.9,3.1-2.1,5.4h12.7v-.5c-.2-2.2-.7-3.9-1.8-5-1.1-1.1-2.6-1.8-4.4-1.8Z"/>
    <path d="M825,452.4c1.2,0,2.2.4,2.9,1.1.7.7,1,1.6,1,2.7s-.4,1.9-1,2.6c-.7.7-1.7,1.1-2.9,1.1s-2.1-.4-2.8-1c-.7-.7-1.1-1.5-1.1-2.7s.4-1.9,1-2.7c.7-.8,1.7-1.1,2.9-1.1Z"/>
  </g>
</svg>