<svg xmlns="http://www.w3.org/2000/svg" viewBox="0 0 1666.9 616" preserveAspectRatio="xMidYMid meet" class="MDALogo__logo"><path d="M0 288.8V616c159.5 0 288.8-129.3 288.8-288.8V0C129.3 0 0 129.3 0 288.8z" class="mda-space-logo_svg__st0"></path><path d="M327.2 0v327.2C327.2 486.7 456.5 616 616 616V288.8C616 129.3 486.7 0 327.2 0z" class="mda-space-logo_svg__st0"></path><g><path d="M712.4 616c-25.2 0-37.2-11.3-37.7-27.1h20c1.2 6.9 5.8 10.8 17.8 10.8 8.6 0 14.4-2 14.4-7.2 0-6.1-7.1-7.8-15.1-9.8l-11.9-2.3c-13.4-3.1-22.6-10.2-22.6-22.7 0-15.5 13.6-24.3 33.9-24.3 21.6 0 33.2 10.1 34 24.4h-20.1c-1-5.3-5.3-8.1-14-8.1s-13.6 2.5-13.6 7c0 4.7 5 6.7 13.2 8.5l11.5 2.1c13.1 2.6 25 9.4 25 25-.1 16.7-17.3 23.7-34.8 23.7z" class="mda-space-logo_svg__st0"></path><path d="M969.8 561.2c0 16-10.5 26.7-29 26.7h-25.9v26.9h-18.7v-80.2H941c18 0 28.8 10.7 28.8 26.6zm-19.9 0c0-5.5-3.4-9.9-10.7-9.9h-24.4v19.8H939c7.6.1 10.9-4.2 10.9-9.9z" class="mda-space-logo_svg__st0"></path><path d="M1184.4 597.8h-37.5l-7.3 17.1h-20.8l30.7-69.7c2.8-6.4 9.2-10.5 16.2-10.5s13.3 4.1 16.2 10.6l30.6 69.7h-20.6l-7.5-17.2zm-6.8-15.7l-11.5-26.8h-1.2l-11.5 26.8h24.2z" class="mda-space-logo_svg__st0"></path><path d="M1407.5 616c-29.7 0-46.1-17.4-46.1-41s18.2-41.5 46.1-41.5c22.1 0 39.4 9.8 42.2 29.1h-21.3c-2.6-7-9.8-11.3-20.9-11.3-16.2 0-26.4 9.5-26.4 23.7 0 15 11.5 23.3 26.4 23.3 12 0 19.8-4.5 22.1-11h21.3c-2.4 18.8-20.1 28.7-43.4 28.7z" class="mda-space-logo_svg__st0"></path><path d="M1666.9 598.1v16.7H1600v-80.2h65.8v16.7h-47v14.6h40.1v16.5h-40.1v15.7h48.1z" class="mda-space-logo_svg__st0"></path><path d="M1214.1 190.1h-141.4v288.5h141.4c86.6 0 143.4-54.8 143.4-145.1s-56.8-143.4-143.4-143.4zm-2 235.8h-80.4v-183h80.4c56.1 0 85.3 34.6 85.3 89.8s-28.1 93.2-85.3 93.2z" class="mda-space-logo_svg__st0"></path><path d="M1457.1 222.5l-111.2 256.2h62.6l28.4-67.2h138.9l28.4 67.2h62.7l-111.2-256.2c-18.7-43.1-79.8-43.1-98.6 0zm.5 140.7l47-110h3.7l47 110h-97.7z" class="mda-space-logo_svg__st0"></path><path d="M991.8 190.1c-16.4 0-31.5 8.9-39.5 23.3L855.8 388l-96.6-174.6c-7.9-14.4-23.1-23.3-39.5-23.3-24.9 0-45.1 20.2-45.1 45.1v243.4H732V286h3.4L812 420.2c19.4 33.9 68.2 33.9 87.6 0L976.3 286h3.4v192.7h57.3V235.2c0-24.9-20.2-45.1-45.2-45.1z" class="mda-space-logo_svg__st0"></path></g></svg> 