<svg xmlns="http://www.w3.org/2000/svg" xmlns:xlink="http://www.w3.org/1999/xlink" viewBox="0 0 375.75 71.76"><defs><style>.a{fill:url(#a);}.b{fill:url(#b);}.c{fill:url(#c);}.d{fill:url(#d);}.e{fill:url(#e);}.f{fill:url(#f);}.g{fill:url(#g);}.h{fill:url(#h);}.i{fill:#140087;}</style><linearGradient id="a" x1="235.33" y1="326.72" x2="292" y2="326.72" gradientUnits="userSpaceOnUse"><stop offset="0" stop-color="red"/><stop offset="1" stop-color="#ff4b00"/></linearGradient><linearGradient id="b" x1="244.86" y1="284.17" x2="244.86" y2="333.31" gradientUnits="userSpaceOnUse"><stop offset="0" stop-color="#c80000"/><stop offset="1" stop-color="red"/></linearGradient><linearGradient id="c" x1="11.72" y1="53.15" x2="70.43" y2="53.15" xlink:href="#b"/><linearGradient id="d" x1="-0.19" y1="35.43" x2="23.29" y2="35.43" xlink:href="#a"/><linearGradient id="e" x1="-0.63" y1="11.81" x2="47.19" y2="11.81" xlink:href="#b"/><linearGradient id="f" x1="256.98" y1="273.57" x2="301.73" y2="273.57" xlink:href="#a"/><linearGradient id="g" x1="71.59" y1="35.43" x2="46.98" y2="35.43" xlink:href="#a"/><linearGradient id="h" x1="303.77" y1="286.25" x2="280.24" y2="286.25" xlink:href="#b"/></defs><title>telesat</title><path class="a" d="M244.86,320.82,234.78,330.9a5.89,5.89,0,0,0,4.17,1.73h41.34l11.81-11.81Z" transform="translate(-233.05 -261.76)"/><path class="b" d="M256.67,309h0L233,285.38v41.34a5.89,5.89,0,0,0,1.73,4.17l10.08-10.08L256.67,309h0Z" transform="translate(-233.05 -261.76)"/><polygon class="c" points="23.62 47.24 23.62 47.24 11.81 59.05 59.05 59.05 70.86 47.24 23.62 47.24"/><polygon class="d" points="23.62 23.62 0 23.62 23.62 47.24 23.62 23.62"/><polygon class="e" points="47.24 23.62 23.62 0 0 23.62 47.24 23.62"/><path class="f" d="M302.18,263.49a5.89,5.89,0,0,0-4.17-1.73H256.67l23.62,23.62Z" transform="translate(-233.05 -261.76)"/><polygon class="g" points="47.24 47.24 70.86 47.24 70.86 23.62 47.24 47.24"/><path class="h" d="M303.91,267.67a5.89,5.89,0,0,0-1.73-4.17l-21.89,21.89h0V309l23.62-23.62h0Z" transform="translate(-233.05 -261.76)"/><path class="i" d="M341.12,296.48H327.55v-11.1h40.1v5.25c0,4-1.86,5.85-5.85,5.85h-8v36.11H341.12Z" transform="translate(-233.05 -261.76)"/><path class="i" d="M406.15,321.22v11.37H379.62l-8-11.3V285.38h33.51v11.37H384v6.72h14.7v11H384v6.78Zm-12.7-40.16H382.81L391,270h11.7Z" transform="translate(-233.05 -261.76)"/><path class="i" d="M445.58,321.48v11.1H412.2V285.38H419c4,0,5.85,1.86,5.85,5.85v30.25Z" transform="translate(-233.05 -261.76)"/><path class="i" d="M483.56,321.22v11.37H457l-8-11.3V285.38H482.5v11.37H461.42v6.72h14.7v11h-14.7v6.78Zm-12.7-40.16H460.22l8.18-11h11.7Z" transform="translate(-233.05 -261.76)"/><path class="i" d="M488,329.66l3.92-10.77c5.39,2.33,9.38,3.52,13,3.52s5.59-1.33,5.59-3.39c0-2.79-2.66-3.59-7-5-8.24-2.59-13.9-5.79-13.9-15.09,0-9.58,6-14.5,17.22-14.5A33.17,33.17,0,0,1,522.22,288L517,297.74c-4.45-1.93-7.18-2.66-10.37-2.66s-5.05,1.13-5.05,2.93c0,2.53,1.53,3.26,8.58,5.85,8.18,2.93,13.17,6.85,13.17,14.63,0,10-6.58,15-18.55,15A37.32,37.32,0,0,1,488,329.66Z" transform="translate(-233.05 -261.76)"/><path class="i" d="M560.52,332.59l-2.73-6.85h-8l-6.52-8.64-5,15.49h-13.7l17.82-47.21h7.31c4,0,6.52,1.73,8,5.45l16.22,41.76Zm-6-17-5.45-16h-.2l-5.19,16Z" transform="translate(-233.05 -261.76)"/><path class="i" d="M582.26,296.48H568.7v-11.1h40.1v5.25c0,4-1.86,5.85-5.85,5.85h-8v36.11H582.26Z" transform="translate(-233.05 -261.76)"/></svg>